<svg width="165" height="158" viewBox="0 0 165 158" fill="none" xmlns="http://www.w3.org/2000/svg">
<rect x="0.188904" y="0.623779" width="164.433" height="157.376" rx="78.6881" fill="white"/>
<path d="M136.317 49.712L82.0837 19.7443L27.8506 49.712V109.647L82.0837 139.615L136.317 109.647V49.712Z" fill="#1644F5"/>
<path d="M108.866 54.047C103.493 48.9046 96.6473 45.4026 89.1947 43.9838C81.7421 42.565 74.0174 43.2932 66.9972 46.0762C59.9771 48.8593 53.9768 53.5722 49.7553 59.619C45.5338 65.6658 43.2805 72.775 43.2805 80.0474C43.2805 87.3199 45.5338 94.429 49.7553 100.476C53.9769 106.523 59.9771 111.236 66.9972 114.019C74.0174 116.802 81.7422 117.53 89.1947 116.111C96.6473 114.692 103.493 111.19 108.866 106.048L93.2968 91.147C91.0031 93.3422 88.0807 94.8373 84.8992 95.4429C81.7177 96.0486 78.42 95.7378 75.4231 94.5497C72.4262 93.3616 69.8647 91.3497 68.0626 88.7683C66.2604 86.1869 65.2985 83.152 65.2985 80.0474C65.2985 76.9428 66.2604 73.9079 68.0626 71.3265C69.8647 68.7452 72.4262 66.7332 75.4231 65.5451C78.42 64.357 81.7177 64.0462 84.8992 64.6519C88.0807 65.2575 91.0031 66.7526 93.2968 68.9478L108.866 54.047Z" fill="white"/>
</svg>
