<svg width="165" height="158" viewBox="0 0 165 158" fill="none" xmlns="http://www.w3.org/2000/svg">
<rect y="0.623779" width="164.433" height="157.376" rx="78.6881" fill="white"/>
<path d="M136.128 49.712L81.8947 19.7443L27.6617 49.712V109.647L81.8947 139.615L136.128 109.647V49.712Z" fill="#1644F5"/>
<path d="M108.677 54.047C103.304 48.9046 96.4583 45.4026 89.0057 43.9838C81.5532 42.565 73.8284 43.2932 66.8082 46.0762C59.7881 48.8593 53.7878 53.5722 49.5663 59.619C45.3448 65.6658 43.0916 72.775 43.0916 80.0474C43.0916 87.3199 45.3448 94.429 49.5663 100.476C53.7879 106.523 59.7881 111.236 66.8082 114.019C73.8284 116.802 81.5532 117.53 89.0057 116.111C96.4583 114.692 103.304 111.19 108.677 106.048L93.1078 91.147C90.8141 93.3422 87.8917 94.8373 84.7102 95.4429C81.5287 96.0486 78.231 95.7378 75.2341 94.5497C72.2372 93.3616 69.6757 91.3497 67.8736 88.7683C66.0714 86.1869 65.1095 83.152 65.1095 80.0474C65.1095 76.9428 66.0714 73.9079 67.8736 71.3265C69.6757 68.7452 72.2372 66.7332 75.2341 65.5451C78.231 64.357 81.5287 64.0462 84.7102 64.6519C87.8917 65.2575 90.8141 66.7526 93.1078 68.9478L108.677 54.047Z" fill="white"/>
<path d="M87.556 80.5385H84.0412V76.0194H87.556V72.0025H92.5773V76.0194H96.0921V80.5385H92.5773V84.5555H87.556V80.5385ZM105.789 80.5385H102.274V76.0194H105.789V72.0025H110.81V76.0194H114.325V80.5385H110.81V84.5555H105.789V80.5385Z" fill="white"/>
</svg>
