<svg width="165" height="158" viewBox="0 0 165 158" fill="none" xmlns="http://www.w3.org/2000/svg">
<ellipse cx="82.2166" cy="78.6881" rx="82.2166" ry="78.6881" fill="#264DE4"/>
<path d="M123.656 132.166L134.448 36.5341H81.5559H29.0176L38.9796 132.166L81.5559 147.769L123.656 132.166Z" fill="white"/>
<path d="M60.4886 16.0606C60.4886 14.2409 61.1141 12.8307 62.3651 11.8299C63.6389 10.8064 65.5495 10.2946 68.0969 10.2946C69.7801 10.2946 71.213 10.4538 72.3958 10.7723V15.4806C71.1221 15.0939 69.8597 14.9005 68.6087 14.9005C67.3805 14.9005 66.5844 15.0484 66.2205 15.3441C65.8565 15.617 65.6746 16.0264 65.6746 16.5723V28.036C65.6746 29.1277 66.5275 29.6736 68.2334 29.6736C69.9621 29.6736 71.3836 29.503 72.4982 29.1618V33.7678C71.2699 34.1089 69.7801 34.2795 68.0287 34.2795C65.4812 34.2795 63.582 33.7791 62.331 32.7783C61.1028 31.7776 60.4886 30.3673 60.4886 28.5477V16.0606ZM74.0372 15.9923C74.0372 14.1727 74.6513 12.7739 75.8796 11.7958C77.1078 10.795 78.8706 10.2946 81.1678 10.2946C83.4879 10.2946 85.2165 10.5335 86.3538 11.0111V15.9241C84.9663 15.3327 83.3855 15.037 81.6114 15.037C80.7016 15.037 80.0874 15.1849 79.769 15.4806C79.4506 15.7535 79.2914 16.1515 79.2914 16.6747V17.1864C79.2914 17.8233 79.3937 18.301 79.5984 18.6194C79.8259 18.9151 80.3035 19.2563 81.0314 19.6429L84.9208 21.8265C86.7859 22.85 87.7185 24.3853 87.7185 26.4324V28.5477C87.7185 30.3901 87.0361 31.8117 85.6714 32.8125C84.3067 33.7905 82.3847 34.2795 79.9055 34.2795C77.449 34.2795 75.5952 34.018 74.3443 33.4948V28.5477C75.8909 29.2073 77.6423 29.5371 79.5984 29.5371C81.5545 29.5371 82.5326 28.9799 82.5326 27.8654V27.3536C82.5326 26.8305 82.4188 26.4438 82.1914 26.1936C81.9867 25.9206 81.5886 25.625 80.9973 25.3065L77.3466 23.3277C75.1403 22.0994 74.0372 20.3708 74.0372 18.1418V15.9923ZM89.0304 15.9923C89.0304 14.1727 89.6446 12.7739 90.8728 11.7958C92.101 10.795 93.8638 10.2946 96.1611 10.2946C98.4811 10.2946 100.21 10.5335 101.347 11.0111V15.9241C99.9595 15.3327 98.3787 15.037 96.6046 15.037C95.6948 15.037 95.0807 15.1849 94.7622 15.4806C94.4438 15.7535 94.2846 16.1515 94.2846 16.6747V17.1864C94.2846 17.8233 94.3869 18.301 94.5917 18.6194C94.8191 18.9151 95.2968 19.2563 96.0246 19.6429L99.9141 21.8265C101.779 22.85 102.712 24.3853 102.712 26.4324V28.5477C102.712 30.3901 102.029 31.8117 100.665 32.8125C99.2999 33.7905 97.378 34.2795 94.8987 34.2795C92.4422 34.2795 90.5885 34.018 89.3375 33.4948V28.5477C90.8842 29.2073 92.6356 29.5371 94.5917 29.5371C96.5478 29.5371 97.5258 28.9799 97.5258 27.8654V27.3536C97.5258 26.8305 97.4121 26.4438 97.1846 26.1936C96.9799 25.9206 96.5819 25.625 95.9905 25.3065L92.3399 23.3277C90.1336 22.0994 89.0304 20.3708 89.0304 18.1418V15.9923Z" fill="white"/>
<path d="M39.8098 44.0854H125.317L117.543 125.922L80.7965 136.068L48.2898 125.922V102.251H61.0098L64.5431 113.748L80.7965 118.483L101.997 113.748V94.8108H48.2898H43.3431V77.226H101.997V61.6702H43.3431L39.8098 44.0854Z" fill="#264DE4"/>
</svg>
