<svg width="25" height="31" viewBox="0 0 25 31" fill="none" xmlns="http://www.w3.org/2000/svg">
<path d="M24.5264 11.4355C24.7168 11.2559 25 11.4239 25 11.7079V23.558C25 25.0935 23.9502 26.3394 22.6562 26.3394H2.34375C1.0498 26.3394 0 25.0935 0 23.558V11.7137C0 11.4239 0.27832 11.2617 0.473633 11.4413C1.56738 12.4496 3.01758 13.7302 7.99805 18.0241C9.02832 18.9164 10.7666 20.7939 12.5 20.7823C14.2432 20.7997 16.0156 18.8817 17.0068 18.0241C21.9873 13.7302 23.4326 12.4438 24.5264 11.4355ZM12.5 18.9222C13.6328 18.9454 15.2637 17.2302 16.084 16.5232C22.5635 10.943 23.0566 10.4562 24.5508 9.06551C24.834 8.80475 25 8.39912 25 7.97031V6.86933C25 5.33374 23.9502 4.08789 22.6562 4.08789H2.34375C1.0498 4.08789 0 5.33374 0 6.86933V7.97031C0 8.39912 0.166016 8.79895 0.449219 9.06551C1.94336 10.4504 2.43652 10.943 8.91602 16.5232C9.73633 17.2302 11.3672 18.9454 12.5 18.9222Z" fill="white"/>
</svg>
