<svg width="80" height="80" viewBox="0 0 80 80" fill="none" xmlns="http://www.w3.org/2000/svg">
<g clip-path="url(#clip0_657_13)">
<path d="M60 13.3334H20C16.3181 13.3334 13.3333 16.3181 13.3333 20V60C13.3333 63.6819 16.3181 66.6667 20 66.6667H60C63.6819 66.6667 66.6667 63.6819 66.6667 60V20C66.6667 16.3181 63.6819 13.3334 60 13.3334Z" stroke="#F86F03" stroke-width="6" stroke-linecap="round" stroke-linejoin="round"/>
<path d="M50 30H30V50H50V30Z" stroke="#F86F03" stroke-width="6" stroke-linecap="round" stroke-linejoin="round"/>
<path d="M30 3.33337V13.3334" stroke="#F86F03" stroke-width="6" stroke-linecap="round" stroke-linejoin="round"/>
<path d="M50 3.33337V13.3334" stroke="#F86F03" stroke-width="6" stroke-linecap="round" stroke-linejoin="round"/>
<path d="M30 66.6666V76.6666" stroke="#F86F03" stroke-width="6" stroke-linecap="round" stroke-linejoin="round"/>
<path d="M50 66.6666V76.6666" stroke="#F86F03" stroke-width="6" stroke-linecap="round" stroke-linejoin="round"/>
<path d="M66.6667 30H76.6667" stroke="#F86F03" stroke-width="6" stroke-linecap="round" stroke-linejoin="round"/>
<path d="M66.6667 46.6666H76.6667" stroke="#F86F03" stroke-width="6" stroke-linecap="round" stroke-linejoin="round"/>
<path d="M3.33333 30H13.3333" stroke="#F86F03" stroke-width="6" stroke-linecap="round" stroke-linejoin="round"/>
<path d="M3.33333 46.6666H13.3333" stroke="#F86F03" stroke-width="6" stroke-linecap="round" stroke-linejoin="round"/>
</g>
<defs>
<clipPath id="clip0_657_13">
<rect width="80" height="80" fill="white"/>
</clipPath>
</defs>
</svg>
