<svg width="165" height="158" viewBox="0 0 165 158" fill="none" xmlns="http://www.w3.org/2000/svg">
<rect width="164.433" height="157.376" rx="78.6881" fill="white"/>
<path fill-rule="evenodd" clip-rule="evenodd" d="M85.5443 64.8881C84.2018 65.5369 82.84 66.1949 81.264 66.935C80.494 67.3114 80.319 67.3968 79.6025 65.8924C78.743 64.1199 78.1128 62.9731 76.9096 61.9305C73.3 58.6984 69.805 59.6367 66.5392 63.4944C62.6431 68.0818 60.6377 74.8588 60.695 83.3039C60.7523 91.6447 63.9036 98.5259 68.4299 99.6727C72.326 100.611 75.5918 98.1088 78.1701 92.7915C78.6855 91.6452 79.1445 90.3927 79.7171 88.9339H68.6591C67.4559 88.9339 67.1694 87.5785 67.5705 85.8061C68.3153 82.574 69.6904 77.1525 70.4925 74.4417C70.6644 73.8162 71.0655 72.7735 71.9249 72.7735H90.3628C91.1908 67.9981 92.5347 63.4857 94.3274 59.2162C98.5099 49.2072 103.552 43.9942 110.37 41.8047C116.214 39.928 121.715 40.9706 126.699 47.122C131.226 52.7521 134.033 60.3631 134.778 70.3721C135.752 84.4472 133.517 95.9159 128.189 105.716C124.407 112.702 119.766 117.081 114.438 119.062C113.422 119.404 112.405 119.567 111.405 119.727C110.883 119.81 110.365 119.893 109.854 120C104.641 119.791 99.885 117.081 95.8743 110.825C93.0539 106.389 91.1109 100.936 90.1453 94.5885C89.4751 97.0513 88.6738 99.4099 87.7384 101.654C83.6131 111.558 78.2274 117.71 71.4092 119.378C65.7943 120.733 60.5804 118.752 55.9968 112.497C51.757 106.658 49.3506 98.9429 48.7203 89.351C47.9755 77.9866 49.8089 67.7691 53.5904 58.8027C57.6584 49.1064 63.0441 42.9551 69.6331 40.7656C75.0189 38.9932 80.1754 40.14 84.8163 45.8744C87.853 49.5235 90.0302 54.528 91.4626 60.5751C91.8064 61.5134 91.5772 62.0347 90.8896 62.3475C88.8816 63.2755 87.2278 64.0746 85.5443 64.8881ZM123.451 76.7638C123.462 77.114 123.474 77.4831 123.491 77.8788C123.204 86.8452 120.74 93.5179 116.214 97.7925C113.178 100.608 110.026 100.92 106.875 98.4181C102.75 95.0818 100.573 86.8452 101.604 78.7129C102.864 68.9124 106.302 62.7611 111.631 60.5716C117.074 58.2779 122.287 64.1164 123.319 74.4382C123.4 75.1764 123.424 75.9146 123.451 76.7638Z" fill="#00ACD7"/>
<path d="M29.7089 63.7033C29.5943 64.0161 29.6516 64.2246 29.8808 64.2246L46.9443 64.3289C47.1162 64.3289 47.4026 64.0161 47.5172 63.7033L48.4912 60.9925C48.6058 60.6798 48.5485 60.367 48.3194 60.367H31.5424C31.3132 60.367 31.0267 60.5755 30.9121 60.8883L29.7089 63.7033Z" fill="#00ACD7"/>
<path d="M21.0573 73.2948C20.9427 73.6076 21 73.8161 21.2292 73.8161L44.6524 73.7118C44.8816 73.7118 45.1108 73.5033 45.1681 73.0863L45.6264 70.584C45.6837 70.2713 45.5692 69.9585 45.34 69.9585H22.8907C22.6616 69.9585 22.3751 70.167 22.2605 70.4798L21.0573 73.2948Z" fill="#00ACD7"/>
<path d="M34.9227 82.7829C34.8081 83.0956 34.8654 83.4084 35.0946 83.4084L43.9075 83.5127C44.0794 83.5127 44.3086 83.1999 44.3086 82.7829L44.4232 80.2806C44.4232 79.8636 44.3086 79.5508 44.0794 79.5508H36.2978C36.0686 79.5508 35.8394 79.8636 35.7248 80.1763L34.9227 82.7829Z" fill="#00ACD7"/>
</svg>
