<svg width="165" height="158" viewBox="0 0 165 158" fill="none" xmlns="http://www.w3.org/2000/svg">
<rect x="0.377838" y="0.623779" width="164.433" height="157.376" rx="78.6881" fill="#E44D26"/>
<rect x="0.377838" y="0.623779" width="164.433" height="157.376" rx="78.6881" fill="#E44D26"/>
<path fill-rule="evenodd" clip-rule="evenodd" d="M130.035 41.3757L120.327 127.398L82.4577 141.433L44.1599 127.398L35.199 41.3757H82.4577H130.035ZM61.3395 66.0408H108.417V54.2402H54.6142V88.5692H93.2848V104.661L77.5924 107.343L64.1417 104.661V96.6151H54.6142V113.243L80.955 120.216L105.615 113.243V78.3778H61.3395V66.0408Z" fill="white"/>
<path d="M55.4682 25.1221H59.9797V30.6607H64.1689V25.1221H68.6804V39.3615H64.1689V33.561H59.9797V39.3615H55.4682V25.1221ZM73.7257 39.3615V28.405H70.5032V25.1221H81.5302V28.405H78.2372V39.3615H73.7257ZM83.3529 25.1221H87.5422L91.0869 30.6607L94.6317 25.1221H98.9217V39.3615H94.3094V31.6275L90.9862 37.2568H90.0094L86.5754 31.6275V39.3615H83.3529V25.1221ZM102.366 25.1221H106.877V36.4613H111.711V39.3615H102.366V25.1221Z" fill="white"/>
</svg>
