<svg width="165" height="158" viewBox="0 0 165 158" fill="none" xmlns="http://www.w3.org/2000/svg">
<rect width="164.433" height="157.376" rx="78.6881" fill="white"/>
<path d="M81.9378 33.235C107.055 13.0964 94.1642 0 94.1642 0C96.0826 20.8191 73.4103 25.7348 67.3329 40.0411C63.1859 49.8033 70.1726 58.3512 81.9295 69.1243C80.8901 66.7383 79.2871 64.4198 77.6642 62.0726C72.1291 54.0669 66.3629 45.7269 81.9378 33.235Z" fill="#E76F00"/>
<path d="M85.9477 73.5408C85.9477 73.5408 93.5043 67.244 87.52 60.2467C67.2344 36.5079 109.707 25.7348 109.707 25.7348C83.7755 38.6367 87.6467 46.2949 94.1643 55.5981C101.143 65.5742 85.9477 73.5408 85.9477 73.5408Z" fill="#E76F00"/>
<path d="M108.197 92.3169C131.474 80.0329 120.712 68.228 113.2 69.8184C111.359 70.2076 110.538 70.5448 110.538 70.5448C110.538 70.5448 111.221 69.4574 112.527 68.9867C127.388 63.6806 138.816 84.6363 107.73 92.936C107.73 92.9364 108.09 92.6093 108.197 92.3169Z" fill="#5382A1"/>
<path d="M59.7635 76.7692C45.2 74.794 67.7484 69.3548 67.7484 69.3548C67.7484 69.3548 58.992 68.755 48.2226 74.0421C35.4883 80.298 79.722 83.1433 102.62 77.0273C105 75.3764 108.29 73.9453 108.29 73.9453C108.29 73.9453 98.9205 75.645 89.5889 76.4445C78.1708 77.4161 65.9126 77.6053 59.7635 76.7692Z" fill="#5382A1"/>
<path d="M65.3042 88.4985C57.1832 87.6454 62.5007 83.6478 62.5007 83.6478C41.4861 90.7314 74.1927 98.7642 103.557 90.0437C100.436 88.9261 98.4508 86.8823 98.4508 86.8823C84.0997 89.6888 75.8061 89.5988 65.3042 88.4985Z" fill="#5382A1"/>
<path d="M68.8427 101.19C60.7277 100.243 65.4687 97.4428 65.4687 97.4428C46.3926 102.856 77.0718 114.04 101.359 103.468C97.3808 101.897 94.5324 100.084 94.5324 100.084C83.6984 102.166 78.6739 102.329 68.8427 101.19Z" fill="#5382A1"/>
<path d="M119.641 107.646C119.641 107.646 123.15 110.582 115.777 112.854C101.758 117.167 57.4298 118.469 45.1155 113.025C40.6888 111.07 48.9901 108.356 51.6013 107.786C54.3246 107.186 55.8809 107.298 55.8809 107.298C50.958 103.776 24.0611 114.214 42.2186 117.203C91.7368 125.359 132.485 113.53 119.641 107.646Z" fill="#5382A1"/>
<path d="M127.5 114.061C126.687 124.798 92.3782 127.056 70.0357 125.604C55.4602 124.655 52.5391 122.282 52.4963 122.247C66.4462 124.583 89.9655 125.008 109.035 121.364C125.938 118.131 127.5 114.061 127.5 114.061Z" fill="#5382A1"/>
</svg>
