<svg width="165" height="158" viewBox="0 0 165 158" fill="none" xmlns="http://www.w3.org/2000/svg">
<rect x="0.188904" width="164.433" height="157.376" rx="78.6881" fill="#F7D600"/>
<path d="M81.6889 76.191H71.5429V110.978C68.644 120.399 57.0485 110.978 57.0485 110.978L52.7002 115.326C61.9766 129.82 81.6889 121.124 81.6889 110.978V76.191Z" fill="black" stroke="black" stroke-width="1.44944"/>
<path d="M123.8 81.7829L119.442 88.5566C113.631 83.5391 96.198 79.5286 102.009 91.5671C123.8 99.0934 119.442 96.8355 123.8 101.351C126.705 104.362 126.484 111.888 123.8 115.651C113.921 129.5 96.9244 121.422 89.6608 115.651L96.198 108.125C109.273 122.425 130.337 108.125 99.1035 101.351C95.2296 99.5952 88.9344 93.2229 94.7453 81.7829C100.556 70.3429 116.536 77.0163 123.8 81.7829Z" fill="black"/>
<circle cx="30.2338" cy="104.455" r="13.0449" fill="#22171D"/>
<circle cx="30.2339" cy="104.455" r="8.69663" fill="#22171D"/>
<rect x="25.8856" y="24.736" width="120.303" height="7.24719" fill="#1F1C00"/>
<rect x="25.8856" y="84.1629" width="52.1798" height="7.24719" transform="rotate(-90 25.8856 84.1629)" fill="#1F1C00"/>
<rect x="138.942" y="145.039" width="120.303" height="7.24719" transform="rotate(-90 138.942 145.039)" fill="#1F1C00"/>
<rect x="25.8856" y="137.792" width="120.303" height="7.24719" fill="#1F1C00"/>
<rect x="25.8856" y="137.792" width="13.0449" height="8.69663" transform="rotate(-90 25.8856 137.792)" fill="#1F1C00"/>
</svg>
