<svg width="15" height="15" viewBox="0 0 15 15" fill="none" xmlns="http://www.w3.org/2000/svg">
<path d="M3.87539 13.125H1.1543V4.36226H3.87539V13.125ZM2.51338 3.16694C1.64326 3.16694 0.9375 2.44624 0.9375 1.57612C0.9375 1.15817 1.10353 0.757343 1.39906 0.461808C1.6946 0.166274 2.09543 0.000244141 2.51338 0.000244141C2.93133 0.000244141 3.33216 0.166274 3.62769 0.461808C3.92323 0.757343 4.08926 1.15817 4.08926 1.57612C4.08926 2.44624 3.3832 3.16694 2.51338 3.16694ZM14.0596 13.125H11.3443V8.85933C11.3443 7.84272 11.3238 6.53901 9.92959 6.53901C8.51484 6.53901 8.29805 7.64351 8.29805 8.78608V13.125H5.57988V4.36226H8.18965V5.55757H8.22773C8.59102 4.86909 9.47842 4.14253 10.8023 4.14253C13.5562 4.14253 14.0625 5.95601 14.0625 8.31147V13.125H14.0596Z" fill="white"/>
</svg>
