<svg width="25" height="30" viewBox="0 0 25 30" fill="none" xmlns="http://www.w3.org/2000/svg">
<g clip-path="url(#clip0_2434_33)">
<path d="M24.2866 21.0854L18.8179 18.304C18.5842 18.1858 18.3246 18.1609 18.078 18.233C17.8315 18.3051 17.6113 18.4704 17.4507 18.7038L15.0288 22.2154C11.2279 20.0886 8.16904 16.4585 6.37695 11.9478L9.33594 9.07366C9.53305 8.88341 9.67256 8.62212 9.73335 8.32936C9.79414 8.0366 9.7729 7.72831 9.67285 7.45115L7.3291 0.96113C7.21929 0.662362 7.02508 0.418428 6.77996 0.27139C6.53483 0.124353 6.25416 0.0834274 5.98633 0.155672L0.908203 1.54639C0.649985 1.61715 0.419602 1.7897 0.254656 2.03586C0.0897096 2.28202 -5.94829e-05 2.58726 2.95713e-08 2.90176C2.95713e-08 17.7651 10.1514 29.789 22.6562 29.789C22.9213 29.7892 23.1787 29.6827 23.3862 29.487C23.5937 29.2912 23.7392 29.0177 23.7988 28.7112L24.9707 22.6847C25.0312 22.3654 24.996 22.0309 24.8711 21.739C24.7463 21.4471 24.5396 21.216 24.2866 21.0854Z" fill="white"/>
</g>
<defs>
<clipPath id="clip0_2434_33">
<rect width="25" height="29.6687" fill="white" transform="translate(0 0.120361)"/>
</clipPath>
</defs>
</svg>
