<svg width="165" height="158" viewBox="0 0 165 158" fill="none" xmlns="http://www.w3.org/2000/svg">
<rect x="0.377838" width="164.433" height="157.376" rx="78.6881" fill="#5E7FFF"/>
<path d="M86.324 85.2457C73.7478 71.0224 69.2067 42.8054 90.9717 40.1673C95.1581 40.1673 104.249 42.3203 107.119 50.9323C120.379 42.7606 136.84 45.3371 144.726 59.2303C148.31 65.5458 149.058 74.2564 149.058 85.2457C147.787 97.8049 143.675 123.372 137.396 125.166C134.331 128.081 126.451 133.509 119.454 131.894V126.736L122.37 125.166C125.734 125.166 128.246 108.66 119.454 99.1505C117.588 97.132 103.755 83.4515 100.167 125.166V144.677H75.7213V113.504H62.7136V144.677H38.4924C39.7314 140.685 39.162 125.809 36.7946 113.504L31.0914 97.132C23.9148 87.9369 22.6589 59.6788 44.5477 48.9138C47.7622 47.5682 57.5554 45.2806 71.0117 46.8954C67.5728 54.5206 65.6292 74.6601 85.365 94.2165C90.7475 98.2534 101.512 103.726 101.512 93.3194C97.9241 97.9843 89.8917 89.8806 86.324 85.2457Z" fill="white"/>
<circle cx="134.032" cy="79.8632" r="3.13979" fill="black"/>
<path d="M67.8827 31.72L71.1165 13.3162H76.1907C78.0136 13.3162 79.3632 13.7106 80.2396 14.4993C81.1335 15.288 81.5804 16.5412 81.5804 18.2589C81.5804 19.556 81.3876 20.6514 81.002 21.5453C80.6339 22.4392 80.1344 23.1578 79.5034 23.7012C78.8724 24.2445 78.1626 24.6477 77.3738 24.9106C76.5851 25.156 75.7876 25.2787 74.9813 25.2787H71.5898L70.4593 31.72H67.8827ZM71.9841 23.0439H74.955C76.2696 23.0439 77.2599 22.6145 77.926 21.7556C78.6095 20.8968 78.9513 19.8452 78.9513 18.6007C78.9513 17.6718 78.741 16.9356 78.3203 16.3923C77.9172 15.8314 77.1898 15.5509 76.1382 15.5509H73.325L71.9841 23.0439ZM81.5564 31.72L85.0268 12.0016H87.4456L85.9733 20.2308C86.5342 19.6173 87.1038 19.1879 87.6822 18.9425C88.2782 18.6971 88.9354 18.5744 89.6541 18.5744C90.4603 18.5744 91.1176 18.7585 91.6259 19.1265C92.1517 19.4771 92.5373 19.9591 92.7827 20.5725C93.0456 21.1685 93.1771 21.8345 93.1771 22.5707C93.1771 22.8511 93.1508 23.2104 93.0982 23.6486C93.0632 24.0868 92.993 24.6126 92.8879 25.2261L91.7574 31.72H89.3649L90.4691 25.2787C90.5567 24.7353 90.6268 24.2796 90.6794 23.9115C90.732 23.5259 90.7583 23.1841 90.7583 22.8862C90.7583 22.2026 90.5743 21.668 90.2062 21.2824C89.8381 20.8793 89.3298 20.6777 88.6813 20.6777C88.0328 20.6777 87.4631 20.8355 86.9724 21.151C86.4816 21.4664 86.0259 21.8696 85.6052 22.3603L83.9489 31.72H81.5564ZM93.7255 38.0825L97.1171 18.8373H99.0626L98.9837 20.6777C99.5621 20.0117 100.149 19.4946 100.745 19.1265C101.341 18.7585 102.051 18.5744 102.875 18.5744C103.856 18.5744 104.671 18.8198 105.32 19.3106C105.968 19.8013 106.45 20.4586 106.766 21.2824C107.099 22.1062 107.265 23.0176 107.265 24.0167C107.265 25.0333 107.108 26.0236 106.792 26.9876C106.477 27.9341 106.03 28.7842 105.451 29.5378C104.89 30.2915 104.207 30.8874 103.401 31.3256C102.612 31.7638 101.744 31.9829 100.798 31.9829C100.097 31.9829 99.457 31.8339 98.8786 31.536C98.3177 31.238 97.862 30.756 97.5114 30.0899L96.118 38.0825H93.7255ZM100.666 29.8796C101.473 29.8796 102.182 29.6167 102.796 29.0909C103.427 28.5475 103.918 27.8464 104.268 26.9876C104.619 26.1112 104.794 25.1735 104.794 24.1744C104.794 23.1403 104.584 22.299 104.163 21.6505C103.76 21.002 103.129 20.6777 102.27 20.6777C101.587 20.6777 100.921 20.9056 100.272 21.3613C99.641 21.7995 99.124 22.4392 98.7208 23.2805C98.3177 24.1219 98.1161 25.1297 98.1161 26.304C98.1161 27.6011 98.3615 28.5212 98.8523 29.0646C99.3431 29.6079 99.9477 29.8796 100.666 29.8796Z" fill="white"/>
</svg>
