<svg width="165" height="158" viewBox="0 0 165 158" fill="none" xmlns="http://www.w3.org/2000/svg">
<rect x="0.566772" y="0.623779" width="164.433" height="157.376" rx="78.6881" fill="white"/>
<path d="M49.861 119.52V100.604C49.9537 95.5041 53.6442 85.1928 67.6645 84.7477C81.6848 84.3027 98.3571 84.5623 104.941 84.7477C108.525 85.0038 115.19 81.6693 118.709 73.6205V33.2844C116.53 29.2044 108.946 20.9332 96.0389 20.4881C83.1314 20.043 73.2281 20.3026 69.89 20.4881C64.9755 22.0645 54.9795 26.8306 54.3119 33.2844C53.6442 39.7382 54.0337 47.4716 54.3119 50.5316H86.5808V54.4261H39.5683C33.0774 55.1679 19.9844 61.0468 19.5393 78.6278C19.0942 96.2088 19.3539 98.564 19.5393 97.5441C20.1884 103.942 24.324 117.295 35.6738 119.52H49.861Z" fill="#3970A2" stroke="black" stroke-width="0.834541"/>
<path d="M124.273 55.5388V74.4551C124.18 79.5551 120.489 89.8663 106.469 90.3114C92.4487 90.7565 75.7764 90.4968 69.1928 90.3114C65.6088 90.0554 58.9432 93.3898 55.4246 101.439V141.775C57.6031 145.855 65.187 154.126 78.0946 154.571C91.0022 155.016 100.905 154.756 104.244 154.571C109.158 152.995 119.154 148.229 119.822 141.775C120.489 135.321 120.1 127.588 119.822 124.528H87.5527V120.633H134.565C141.056 119.891 154.149 114.012 154.594 96.4313C155.039 78.8503 154.78 76.4951 154.594 77.5151C153.945 71.1169 149.81 57.7643 138.46 55.5388H124.273Z" fill="#FED141" stroke="black" stroke-width="0.834541"/>
<circle cx="68.499" cy="36.3444" r="6.39815" fill="white" stroke="black" stroke-width="1.66908"/>
<circle cx="104.662" cy="137.602" r="6.39815" fill="white" stroke="black" stroke-width="1.66908"/>
</svg>
