<svg width="165" height="158" viewBox="0 0 165 158" fill="none" xmlns="http://www.w3.org/2000/svg">
<g clip-path="url(#clip0_2434_97)">
<rect x="0.566772" width="164.433" height="157.376" rx="78.6881" fill="#F7354D"/>
<path d="M79.5756 125.562L79.5114 125.484L20.6812 54.091L45.4526 21.0666L79.7801 21.0667L79.785 21.0666L113.729 20.8787L138.499 53.9006L79.8159 125.115L79.7458 125.2L79.699 125.299L79.5756 125.562Z" fill="white" stroke="#F7354D" stroke-width="1.7525"/>
<path d="M59.5553 128.379H65.2311C67.2043 128.379 68.6436 128.843 69.5489 129.772C70.4543 130.677 70.9069 132.082 70.9069 133.985V135.483C70.9069 138.013 70.0712 139.615 68.3998 140.288V140.357C69.3284 140.636 69.9784 141.205 70.3498 142.064C70.7444 142.923 70.9418 144.072 70.9418 145.511V149.794C70.9418 150.49 70.965 151.059 71.0114 151.5C71.0578 151.918 71.1739 152.336 71.3596 152.754H67.4597C67.3204 152.359 67.2275 151.988 67.1811 151.639C67.1347 151.291 67.1115 150.664 67.1115 149.759V145.302C67.1115 144.188 66.9257 143.41 66.5543 142.969C66.2061 142.528 65.5909 142.307 64.7088 142.307H63.3856V152.754H59.5553V128.379ZM64.7785 138.825C65.5445 138.825 66.1133 138.628 66.4847 138.233C66.8793 137.839 67.0766 137.177 67.0766 136.249V134.368C67.0766 133.486 66.9141 132.848 66.5891 132.453C66.2874 132.058 65.7999 131.861 65.1267 131.861H63.3856V138.825H64.7785ZM79.1706 153.102C77.3135 153.102 75.8975 152.58 74.9225 151.535C73.9475 150.467 73.46 148.947 73.46 146.973V128.379H77.2903V147.252C77.2903 148.088 77.4528 148.691 77.7778 149.063C78.126 149.434 78.6135 149.62 79.2403 149.62C79.867 149.62 80.3429 149.434 80.6679 149.063C81.0161 148.691 81.1902 148.088 81.1902 147.252V128.379H84.8812V146.973C84.8812 148.947 84.3938 150.467 83.4188 151.535C82.4438 152.58 81.0277 153.102 79.1706 153.102ZM87.6092 128.379H93.3895C95.3627 128.379 96.8019 128.843 97.7073 129.772C98.6126 130.677 99.0653 132.082 99.0653 133.985V134.96C99.0653 136.214 98.8564 137.235 98.4385 138.024C98.0439 138.814 97.4287 139.382 96.593 139.731V139.8C98.4966 140.45 99.4483 142.145 99.4483 144.884V146.973C99.4483 148.854 98.9492 150.293 97.951 151.291C96.9761 152.266 95.5368 152.754 93.6333 152.754H87.6092V128.379ZM92.9368 138.303C93.7029 138.303 94.2716 138.106 94.6431 137.711C95.0377 137.316 95.235 136.655 95.235 135.726V134.368C95.235 133.486 95.0725 132.848 94.7475 132.453C94.4457 132.058 93.9582 131.861 93.285 131.861H91.4395V138.303H92.9368ZM93.6333 149.272C94.3065 149.272 94.8056 149.097 95.1305 148.749C95.4555 148.378 95.618 147.751 95.618 146.869V144.745C95.618 143.631 95.4207 142.865 95.0261 142.447C94.6547 142.006 94.0279 141.785 93.1458 141.785H91.4395V149.272H93.6333ZM104.66 142.377L100.029 128.379H104.103L106.714 137.328H106.784L109.396 128.379H113.122L108.49 142.377V152.754H104.66V142.377Z" fill="white"/>
</g>
<defs>
<clipPath id="clip0_2434_97">
<rect x="0.566772" width="164.433" height="157.376" rx="78.6881" fill="white"/>
</clipPath>
</defs>
</svg>
